<?xml version="1.0" standalone="no"?>
<!DOCTYPE svg PUBLIC "-//W3C//DTD SVG 1.1//EN" "http://www.w3.org/Graphics/SVG/1.1/DTD/svg11.dtd" >
<svg xmlns="http://www.w3.org/2000/svg">
<metadata>Generated by IcoMoon</metadata>
<defs>
<font id="nkbrelation-icon-font" horiz-adv-x="512">
<font-face units-per-em="512" ascent="480" descent="-32" />
<missing-glyph horiz-adv-x="512" />
<glyph unicode="&#x20;" d="" horiz-adv-x="256" />
<glyph unicode="&#x21;" d="M21.334 0v50.134q0 17.067 4.373 25.707t16.96 15.68q102.614 59.306 149.333 79.36v80.427q-21.334 15.787-21.334 47.787v63.573q0 26.88 10.346 48.214t32.534 34.56 53.12 13.226 53.12-13.226 32.534-34.56 10.346-48.214v-63.573q0-31.787-21.334-47.574v-80.64q39.68-16 149.333-79.36 12.587-7.040 16.96-15.68t4.373-25.707v-50.134q0-4.48-3.094-7.574t-7.574-3.094h-469.334q-4.267 0-7.466 3.094t-3.2 7.574z" />
<glyph unicode="&#x2b;" d="M42.666 171.52q0-4.48 3.093-8t7.574-3.52h160v-159.147q0-4.267 3.413-7.894t7.68-3.627h63.147q4.48 0 7.786 3.52t3.307 8v159.147h159.573q4.267 0 7.68 3.52t3.413 8v63.147q0 4.48-3.307 7.573t-7.786 3.094h-159.573v160q0 4.48-3.307 7.573t-7.786 3.094h-63.147q-4.48 0-7.786-3.094t-3.306-7.573v-160h-160q-4.48 0-7.574-3.094t-3.093-7.573v-63.147z" />
<glyph unicode="&#x2212;" d="M64 170.666q0-4.48 3.094-7.574t7.573-3.094h362.666q4.48 0 7.574 3.094t3.094 7.574v64q0 4.48-3.094 7.573t-7.574 3.094h-362.666q-4.48 0-7.573-3.094t-3.093-7.573v-64z" />
<glyph unicode="&#xe000;" d="M256-32c141.385 0 256 114.615 256 256s-114.615 256-256 256-256-114.615-256-256 114.615-256 256-256zM256 432c114.875 0 208-93.125 208-208s-93.125-208-208-208-208 93.125-208 208 93.125 208 208 208zM128 320c0 17.673 14.327 32 32 32s32-14.327 32-32c0-17.673-14.327-32-32-32s-32 14.327-32 32zM320 320c0 17.673 14.327 32 32 32s32-14.327 32-32c0-17.673-14.327-32-32-32s-32 14.327-32 32zM159.951 89.63l-41.164 24.698c27.981 46.535 78.958 77.672 137.213 77.672s109.231-31.137 137.213-77.672l-41.164-24.698c-19.587 32.574-55.271 54.37-96.049 54.37-40.779 0-76.462-21.796-96.049-54.37z" />
<glyph unicode="&#xe001;" d="M507.094 264.534q0 34.134-10.666 66.24t-30.080 57.92-45.226 45.226-57.92 30.080-66.24 10.667-66.24-10.667-57.92-30.080-45.227-45.226-30.080-57.92-10.666-66.24q0-61.014 33.706-113.493l-130.133-130.133q-3.2-3.2-3.2-7.786t3.2-8l47.147-47.147q3.2-3.2 7.894-3.2t7.894 3.2l130.133 130.134q52.054-33.707 113.494-33.707 34.134 0 66.24 10.666t57.92 30.080 45.226 45.226 30.080 57.92 10.666 66.24zM440.32 264.534q0-29.013-11.306-55.574t-30.507-45.76-45.76-30.613-55.786-11.413-55.786 11.413-45.76 30.613-30.506 45.76-11.306 55.574q0 38.827 19.2 71.893t52.267 52.267 71.894 19.2 71.894-19.2 52.267-52.267 19.2-71.894zM379.094 256v21.334q0 4.267-3.094 7.466t-7.574 3.2h-149.333q-4.48 0-7.573-3.2t-3.094-7.466v-21.334q0-4.48 3.094-7.573t7.573-3.094h149.333q4.48 0 7.574 3.094t3.094 7.573z" />
<glyph unicode="&#xe002;" d="M512.427 264.534q0 34.134-10.666 66.24t-30.080 57.92-45.226 45.226-57.92 30.080-66.24 10.667-66.24-10.667-57.92-30.080-45.226-45.226-30.080-57.92-10.666-66.24q0-61.014 33.707-113.493l-130.133-130.133q-3.2-3.2-3.2-7.786t3.2-8l47.147-47.147q3.2-3.2 7.894-3.2t7.894 3.2l130.133 130.134q52.053-33.707 113.493-33.707 34.133 0 66.24 10.666t57.92 30.080 45.226 45.226 30.080 57.92 10.666 66.24zM445.654 264.534q0-29.013-11.307-55.574t-30.507-45.76-45.76-30.613-55.786-11.413-55.786 11.413-45.76 30.613-30.506 45.76-11.306 55.574q0 38.827 19.2 71.893t52.267 52.267 71.894 19.2 71.894-19.2 52.267-52.267 19.2-71.894zM389.76 256v21.334q0 4.267-3.094 7.466t-7.574 3.2h-53.334v53.334q0 4.267-3.094 7.466t-7.574 3.2h-21.334q-4.48 0-7.574-3.2t-3.094-7.466v-53.334h-53.334q-4.48 0-7.573-3.2t-3.094-7.466v-21.334q0-4.48 3.094-7.573t7.573-3.094h53.334v-53.333q0-4.48 3.094-7.574t7.574-3.094h21.334q4.48 0 7.574 3.094t3.094 7.574v53.334h53.334q4.48 0 7.574 3.094t3.094 7.573z" />
<glyph unicode="&#xe003;" d="M58.453-0h53.76q18.347 0 31.787 12.267t15.36 30.4h214.4q2.134-18.134 15.574-30.4t31.786-12.267h53.76q19.627 0 33.707 14.080t14.080 33.707v53.76q0 19.84-14.080 33.813t-33.707 13.974h-53.76q-18.346 0-31.786-12.267t-15.574-30.4h-107.094v90.026l85.334 84.693v38.614h-52.053l-87.894-87.254q-9.387-9.386-9.387-22.614v-103.466h-43.306q-1.92 18.134-15.36 30.4t-31.787 12.267h-53.76q-19.84 0-33.813-13.974t-13.973-33.813v-53.76q0-19.627 13.973-33.707t33.813-14.080zM58.453 42.666q-2.133 0-3.627 1.493t-1.493 3.627v53.76q0 2.134 1.493 3.627t3.627 1.493h53.76q2.133 0 3.627-1.493t1.493-3.627v-53.76q0-2.134-1.493-3.627t-3.626-1.493h-53.76zM421.12 42.666q-2.134 0-3.627 1.493t-1.493 3.627v53.76q0 2.134 1.493 3.627t3.627 1.493h53.76q2.134 0 3.627-1.493t1.493-3.627v-53.76q0-2.134-1.493-3.627t-3.627-1.493h-53.76zM373.334 277.333v64h-64v42.667h64v64h42.666v-64h64v-42.667h-64v-64h-42.666z" />
<glyph unicode="&#xe004;" d="M469.334 138.666h-170.666v-170.666h-128v170.667h-170.667v128h170.667v170.667h128v-170.667h170.667v-128z" />
<glyph unicode="&#xe005;" d="M58.027 0.426h53.76q18.346 0 31.786 12.267t15.36 30.4h214.4q2.134-18.134 15.574-30.4t31.786-12.267h53.76q19.627 0 33.707 14.080t14.080 33.707v53.76q0 19.84-14.080 33.813t-33.707 13.974h-53.76q-18.346 0-31.786-12.267t-15.574-30.4h-107.094v90.026l53.546 53.334-45.226 45.226-62.934-62.507q-9.387-9.387-9.387-22.613v-103.466h-43.306q-1.92 18.134-15.36 30.4t-31.787 12.267h-53.76q-19.84 0-33.813-13.974t-13.973-33.813v-53.76q0-19.627 13.973-33.707t33.813-14.080zM58.027 43.093q-2.133 0-3.627 1.493t-1.493 3.627v53.76q0 2.134 1.493 3.627t3.627 1.493h53.76q2.133 0 3.626-1.493t1.493-3.627v-53.76q0-2.134-1.493-3.627t-3.626-1.493h-53.76zM420.694 43.093q-2.134 0-3.627 1.493t-1.493 3.627v53.76q0 2.134 1.493 3.627t3.627 1.493h53.76q2.134 0 3.627-1.493t1.493-3.627v-53.76q0-2.134-1.493-3.627t-3.627-1.493h-53.76zM349.014 278.613l-39.254 39.253 45.226 45.227-45.226 45.226 39.254 39.253 45.226-45.226 45.226 45.226 39.254-39.253-45.226-45.226 45.226-45.227-39.254-39.253-45.226 45.226z" />
<glyph unicode="&#xe006;" d="M490.761-11.74h-218.512l79.117 79.117-24.754 24.714h35.615l-44.627 44.627c99.717-9.774 173.161-47.729 173.161-148.462zM185.369 92.148h-35.596l44.611 44.592c-99.737-9.774-173.161-47.746-173.161-148.48h218.529l-79.102 79.117 24.714 24.772zM344.928 297.568c-3.226-44.317-22.125-96.073-49.289-123.836h104.958v117.089c0 122.421-64.738 168.915-144.597 168.915s-144.617-46.494-144.617-168.915v-117.089h104.958c-26.256 26.837-44.936 76.198-49.052 119.502l1.053 0.073c45.154 0 84.195 18.696 105.63 46.295 15.668-20.165 40.837-35.271 70.957-42.036z" />
<glyph unicode="&#xe008;" d="M0-32h512v21.334q0 8.747-6.293 15.040t-15.040 6.293v149.333h-149.334v64h-320v-213.333q-8.746 0-15.040-6.293t-6.293-15.040v-21.334zM64 138.666v42.666h42.666v-42.666h-42.666zM64 245.333v106.667h64v-106.666h-64zM128 138.666v42.666h42.666v-42.666h-42.666zM149.333 245.333h85.333v213.333h-85.334v-213.333zM192 138.666v42.666h42.666v-42.666h-42.666zM256 138.666v42.666h42.666v-42.666h-42.666zM362.666 117.334v21.334h21.334v-21.334h-21.334zM405.334 117.334v21.334h21.334v-21.334h-21.334zM448 117.334v21.334h21.334v-21.334h-21.334z" />
<glyph unicode="&#xe013;" d="M101.546 325.12q0 31.36 12.266 59.947t32.853 49.28 49.28 32.96 60.054 12.266 60.053-12.266 49.28-32.96 32.853-49.28 12.267-59.947q0-10.24-2.56-23.573t-5.12-21.654l-2.56-8.32q-18.346-46.72-53.226-121.493t-60.693-126.186l-25.813-51.413q-1.92-4.053-4.48-4.053t-4.48 4.053q-11.094 21.76-28.587 56.853t-55.147 115.306-56 126.933q-10.24 30.72-10.24 53.547zM185.6 325.12q0-29.226 20.587-49.92t49.814-20.694 49.92 20.694 20.694 49.92-20.693 49.813-49.92 20.587q-29.013 0-49.707-20.693t-20.694-49.707z" />
<glyph unicode="&#xe014;" d="M256 485.546q52.48 0 96.853-26.88t70.186-72.32 25.813-97.92-31.147-116.054q-31.147-48.64-71.040-101.12t-64.214-80.64l-24.32-28.16q-4.267 3.84-11.52 11.094t-28.374 30.080-40.96 46.507-44.374 57.813-42.88 66.133q-26.88 59.306-26.88 111.786 0 52.906 25.814 98.774t70.4 73.387 96.64 27.52zM255.573 187.307q45.653 0 77.867 32.214t32.214 77.867-32.214 77.653-77.867 32-77.653-32.214-32-77.44q0-45.654 32.214-77.867t77.44-32.214z" />
<glyph unicode="&#xe016;" d="M7.040 393.067q0-2.88 0.64-12.48t2.454-20.053 6.4-26.88 11.2-33.173 18.026-38.4 25.706-43.2 35.306-47.147 46.186-50.774 50.666-46.187 47.466-35.306 43.2-25.707 38.613-18.026 32.853-11.2 26.986-6.293 19.947-2.56 12.694-0.64l4.267 0.214 69.334 69.334q7.040 7.253 5.654 17.173t-9.707 15.894l-81.707 58.24q-8.106 5.974-19.094 5.014t-18.026-8.214l-50.774-50.56q-59.947 43.094-114.133 97.067-53.333 53.547-96.853 114.133l50.346 50.56q7.254 7.253 8.427 17.813t-4.587 18.88l-59.306 82.56q-5.76 8.32-15.573 9.6t-17.067-5.76l-69.334-69.546q-0.213-1.493-0.213-4.373z" />
<glyph unicode="&#xe017;" d="M469.334 266.667h-384v-128h384v128z" />
<glyph unicode="&#xe018;" d="M0 224q0 52.053 20.267 99.413t54.613 81.707 81.707 54.613 99.413 20.267 99.413-20.267 81.707-54.613 54.613-81.707 20.267-99.413-20.267-99.413-54.613-81.707-81.707-54.613-99.413-20.267-99.413 20.267-81.707 54.613-54.614 81.707-20.267 99.413zM64 224q0-39.040 15.254-74.56t40.96-61.226 61.226-40.96 74.56-15.253 74.56 15.253 61.226 40.96 40.96 61.226 15.253 74.56-15.253 74.56-40.96 61.226-61.226 40.96-74.56 15.254-74.56-15.254-61.227-40.96-40.96-61.226-15.254-74.56zM149.333 213.76v20.48q0 4.48 3.094 7.786t7.573 3.306h58.88q6.186 8.96 16.107 15.254t21.013 6.293q4.053 0 12.16-2.134l69.12 69.12q2.986 2.986 7.466 2.986t7.466-2.986l14.72-14.933q3.2-2.987 3.2-7.466t-3.2-7.68l-69.546-69.76q1.28-6.4 1.28-10.24 0-17.707-12.48-30.187t-30.187-12.48q-11.094 0-21.013 6.293t-16.107 15.253h-58.88q-4.48 0-7.573 3.307t-3.094 7.786z" />
<glyph unicode="&#xe020;" d="M256 478.293q69.12 0 127.573-34.133t92.587-92.587 34.134-127.573-34.134-127.573-92.587-92.587-127.573-34.134-127.573 34.134-92.587 92.587-34.133 127.573 34.133 127.573 92.587 92.587 127.573 34.133zM256 400.64q-72.96 0-124.8-51.84t-51.84-124.8 51.84-124.8 124.8-51.84 124.8 51.84 51.84 124.8-51.84 124.8-124.8 51.84zM256 224h85.334v-42.666h-128v170.666h42.666v-128z" />
<glyph unicode="&#xe022;" d="M-42.666-32v42.666h42.666v96q0 4.48 3.2 7.574t7.466 3.094h85.334q4.48 0 7.573-3.094t3.094-7.574v-96h21.333v224q0 4.48 3.2 7.573t7.466 3.094h85.334q4.48 0 7.573-3.094t3.094-7.573v-224h21.333v458.666q0 4.48 3.2 7.574t7.466 3.093h85.334q4.48 0 7.574-3.093t3.094-7.574v-458.666h21.334v309.334q0 4.48 3.2 7.573t7.466 3.094h85.334q4.48 0 7.574-3.094t3.094-7.573v-309.334h42.666v-42.666h-576z" />
<glyph unicode="&#xe023;" d="M256 437.334h42.666q17.493 0 30.080-12.587t12.587-30.080v-426.667h-128v426.666q0 17.493 12.587 30.080t30.080 12.587zM426.666 309.333h42.666q17.493 0 30.080-12.587t12.587-30.080v-298.666h-128v298.666q0 17.493 12.587 30.080t30.080 12.587zM170.667-32v170.667q0 17.493-12.587 30.080t-30.080 12.587h-42.666q-17.493 0-30.080-12.587t-12.587-30.080v-170.667h128z" />
<glyph unicode="&#xe028;" d="M5.333 272.214q0 41.173 16.107 78.613t43.2 64.534 64.64 43.2 78.72 16.107 78.613-16.107 64.534-43.2 43.2-64.534 16.106-78.613q0-59.306-32.426-109.654l125.44-125.44q3.2-2.986 3.2-7.466t-3.2-7.68l-45.44-45.44q-2.986-2.986-7.574-2.986t-7.574 2.986l-125.44 125.44q-49.92-32.426-109.44-32.426-41.173 0-78.72 16.106t-64.64 43.2-43.2 64.64-16.107 78.72zM69.76 272.214q0-28.16 10.986-53.76t29.547-44.053 44.053-29.44 53.654-10.986 53.654 10.986 44.053 29.44 29.546 44.053 10.986 53.76q0 27.947-10.986 53.546t-29.546 44.054-44.053 29.44-53.654 10.986-53.654-10.986-44.053-29.44-29.546-44.053-10.987-53.547z" />
<glyph unicode="&#xe037;" d="M9.6 264.534q0 34.134 10.667 66.24t30.080 57.92 45.227 45.226 57.92 30.080 66.24 10.667 66.24-10.667 57.92-30.080 45.226-45.226 30.080-57.92 10.666-66.24q0-61.014-33.707-113.493l130.134-130.133q3.2-3.2 3.2-7.786t-3.2-8l-47.147-47.147q-3.2-3.2-7.894-3.2t-7.894 3.2l-130.133 130.134q-52.053-33.707-113.493-33.707-34.133 0-66.24 10.666t-57.92 30.080-45.227 45.226-30.080 57.92-10.666 66.24zM76.374 264.534q0-29.013 11.306-55.574t30.507-45.76 45.76-30.613 55.786-11.413 55.786 11.413 45.76 30.613 30.507 45.76 11.306 55.574q0 38.827-19.2 71.893t-52.267 52.267-71.894 19.2-71.894-19.2-52.267-52.267-19.2-71.894zM132.267 256v21.334q0 4.267 3.094 7.466t7.573 3.2h53.333v53.334q0 4.267 3.094 7.466t7.573 3.2h21.333q4.48 0 7.573-3.2t3.094-7.466v-53.334h53.333q4.48 0 7.574-3.2t3.094-7.466v-21.334q0-4.48-3.094-7.573t-7.574-3.094h-53.334v-53.333q0-4.48-3.094-7.574t-7.573-3.094h-21.333q-4.48 0-7.573 3.094t-3.094 7.574v53.334h-53.333q-4.48 0-7.573 3.094t-3.094 7.573z" />
<glyph unicode="&#xe042;" d="M4.266 264.534q0 34.134 10.666 66.24t30.080 57.92 45.226 45.226 57.92 30.080 66.24 10.667 66.24-10.667 57.92-30.080 45.226-45.226 30.080-57.92 10.666-66.24q0-61.014-33.707-113.493l130.133-130.133q3.2-3.2 3.2-7.786t-3.2-8l-47.147-47.147q-3.2-3.2-7.894-3.2t-7.894 3.2l-130.133 130.134q-52.053-33.707-113.493-33.707-34.133 0-66.24 10.666t-57.92 30.080-45.227 45.226-30.080 57.92-10.666 66.24zM71.040 264.534q0-29.013 11.306-55.574t30.507-45.76 45.76-30.613 55.786-11.413 55.786 11.413 45.76 30.613 30.507 45.76 11.307 55.574q0 38.827-19.2 71.893t-52.267 52.267-71.894 19.2-71.894-19.2-52.267-52.267-19.2-71.894zM132.267 256v21.334q0 4.267 3.094 7.466t7.573 3.2h149.333q4.48 0 7.574-3.2t3.094-7.466v-21.334q0-4.48-3.094-7.573t-7.574-3.094h-149.333q-4.48 0-7.573 3.094t-3.094 7.573z" />
<glyph unicode="&#xe065;" d="M64-21.334v490.666q0 4.48 3.094 7.574t7.573 3.093h245.333v-138.666q0-4.48 3.094-7.573t7.574-3.094h138.667v-352q0-4.48-3.094-7.574t-7.574-3.094h-384q-4.48 0-7.573 3.094t-3.094 7.574zM341.334 362.666v117.334l128-128h-117.334q-4.48 0-7.574 3.094t-3.094 7.574z" />
<glyph unicode="&#xe066;" d="M42.666-21.334q0-4.48 3.093-7.574t7.574-3.093h384q4.48 0 7.574 3.094t3.094 7.574v84.267l-38.4-32.426q-4.267-3.413-6.293-4.693t-5.014-2.346-6.613-1.067q-13.44 0-21.226 9.493t-7.786 23.574v40.534h-141.867q-16.64 0-22.72 6.187t-6.080 23.253v71.040q0 15.574 7.68 21.546t21.12 5.974h141.867v37.974q0 14.080 7.786 23.574t21.014 9.493q9.813 0 18.986-7.253l37.546-33.067v75.947h-138.666q-4.48 0-7.574 3.094t-3.094 7.574v138.666h-245.333q-4.48 0-7.574-3.2t-3.093-7.466v-490.666zM213.333 125.44v66.346q0 10.88 7.466 10.88h163.2v59.306q0 2.346 2.134 3.094t3.84-0.96l122.026-101.546q1.707-1.28 1.707-2.986 0-2.56-2.134-4.053l-121.173-102.186q-1.92-1.493-4.16-0.853t-2.24 2.986v61.867h-163.2q-4.48 0-5.974 1.707t-1.494 6.4zM320 362.666v117.334l128-128h-117.334q-4.48 0-7.574 3.094t-3.094 7.574z" />
<glyph unicode="&#xe067;" d="M42.666 480v-512h469.334v512h-469.334zM469.334 10.666h-384v384h384v-384zM170.667 309.333h-42.667v42.667h42.666v-42.666zM426.666 309.333h-213.333v42.667h213.333v-42.666zM170.667 224h-42.667v42.666h42.666v-42.666zM426.666 224h-213.333v42.666h213.333v-42.666zM170.667 138.666h-42.667v42.666h42.666v-42.666zM426.666 138.666h-213.333v42.666h213.333v-42.666zM170.667 53.334h-42.667v42.666h42.666v-42.666zM426.666 96h-213.333v-42.666h213.333v42.666z" />
<glyph unicode="&#xe080;" d="M34.026 122.24q-0.96 38.613 26.346 65.92l44.586 44.587q9.814-32.64 33.92-56.747l-33.28-33.28q-8.96-10.24-7.466-21.654t10.666-20.8l34.986-34.986q9.814-9.6 22.4-11.733t22.4 6.187l111.786 112q8.32 9.6 6.187 22.187t-11.733 22.187l-58.026 58.026 45.226 45.226 0.426-0.214 57.6-57.6q19.413-19.413 26.986-44.16t2.026-48.853-23.466-42.026l-111.786-112q-26.88-26.666-66.454-25.067t-68.8 30.613l-34.986 34.986q-28.587 28.587-29.547 67.2zM134.506 289.6q-5.867-23.787 1.173-47.894t25.814-43.094l0.214-0.214 59.947-60.16 45.44 45.44-59.947 59.733-0.427 0.64q-9.173 9.173-10.56 20.48t7.36 21.546l112 112q6.187 6.186 14.293 7.253t15.147-2.026 12.8-8.854l34.986-34.986q9.813-9.6 11.947-22.187t-6.187-22.186l-33.493-33.493q23.894-25.173 33.28-57.387l45.44 45.654q27.094 27.306 25.493 66.346t-31.253 68.48l-34.986 34.986q-28.587 28.587-66.987 29.654t-65.707-26.026l-112-112q-17.92-17.92-23.786-41.707z" />
<glyph unicode="&#xe086;" d="M2.134-8.534l15.147 45.226 180.906 181.12-90.454 90.454q21.974 21.974 47.574 31.253t48.534 4.907 39.573-21.014l105.6 105.6-14.933 14.933q-6.187 6.186-6.187 15.147t6.187 15.147 15.040 6.186 15.040-6.186l120.746-120.747q6.187-6.186 6.187-15.040t-6.187-15.040q-6.187-6.4-15.147-6.293t-15.147 6.293l-14.933 14.933-105.6-105.6q16.64-16.64 21.014-39.574t-4.906-48.534-31.253-47.574l-90.454 90.454-181.12-180.906z" />
<glyph unicode="&#xe110;" d="M512 418.56v-431.786q0-7.68-5.334-13.226t-13.44-5.546h-474.454q-7.68 0-13.226 5.546t-5.546 13.226v431.786q0 7.68 5.546 13.226t13.226 5.547h474.454q8.106 0 13.44-5.547t5.334-13.226zM469.334 394.666h-426.666v-314.454l105.387 77.654 127.147-55.894-31.573 66.56 125.013 135.68 100.694-122.88v213.333zM203.094 288q0-23.894-16.64-40.534t-40.534-16.64-40.534 16.64-16.64 40.534 16.64 40.534 40.534 16.64 40.534-16.64 16.64-40.534z" />
<glyph unicode="&#xe111;" d="M64 94.933q0 4.906 3.626 8.534l120.534 120.534-120.534 120.534q-3.627 3.626-3.627 8.746t3.627 8.534l50.773 50.774q3.627 3.413 8.534 3.413t8.533-3.413l120.746-120.534 120.534 120.534q3.413 3.413 8.534 3.413t8.534-3.413l50.774-50.774q3.413-3.413 3.413-8.534t-3.413-8.746l-120.534-120.534 120.534-120.32q3.413-3.627 3.413-8.64t-3.413-8.64l-50.774-50.774q-3.413-3.627-8.534-3.627t-8.747 3.627l-120.32 120.32-120.534-120.534q-3.413-3.413-8.534-3.413t-8.746 3.413l-50.773 50.986q-3.627 3.627-3.627 8.534z" />
<glyph unicode="&#xe151;" d="M0 53.334v213.334q0 35.413 24.96 60.373t60.373 24.96h213.333q11.306 0 24.534-4.053l-38.613-38.613h-220.587q-8.746 0-15.040-6.293t-6.294-15.040v-256q0-8.747 6.294-15.040t15.040-6.293h256q8.747 0 15.040 6.293t6.293 15.040v92.587l42.666 42.666v-113.92q0-35.413-25.067-60.373t-60.267-24.96h-213.333q-35.413 0-60.373 24.96t-24.96 60.373zM147.413 57.6l34.774 88.96 59.52-60.373-88.107-34.774q-4.267-1.707-5.974 0.106t-0.214 6.080zM200.746 166.4l194.133 194.134 61.654-61.654-194.134-194.134zM413.44 379.094l30.72 30.933q3.413 3.2 7.894 3.2t7.68-3.2l46.293-46.293q3.2-3.2 3.2-7.786t-3.2-7.787l-30.933-30.72z" />
<glyph unicode="&#xe152;" d="M472.747 352.853l48.214 48.214-8.96 36.267-39.254 11.947-48.214-48.214zM469.334 234.667v-96q0-70.4-50.133-120.534t-120.534-50.134h-128q-70.4 0-120.534 50.134t-50.133 120.534v128q0 70.4 50.133 120.534t120.534 50.134q156.16-2.56 169.387-5.974l-79.36-79.36h-132.694q-17.493 0-30.080-12.587t-12.587-30.080v-213.333q0-17.493 12.587-30.080t30.080-12.587h213.333q17.493 0 30.080 12.587t12.587 30.080v53.334zM186.026 113.493l68.694 21.334 175.786 175.786-48.64 48.214-172.8-172.8z" />
<glyph unicode="&#xe153;" d="M21.334 53.334v213.334q0 35.413 25.067 60.373t60.267 24.96h213.333q14.72 0 29.654-5.546l-37.12-37.12h-227.2q-8.746 0-15.040-6.293t-6.293-15.040v-256q0-8.747 6.293-15.040t15.040-6.293h256q8.747 0 15.040 6.293t6.293 15.040v57.387l42.666 42.666v-78.72q0-35.413-24.96-60.373t-60.373-24.96h-213.333q-35.2 0-60.267 24.96t-25.067 60.373zM110.080 183.040q0 4.48 2.987 7.68l49.92 49.707q2.987 3.2 7.573 3.2t7.786-3.2l60.587-60.587q3.2-3.2 7.68-3.2t7.68 3.2l169.173 169.173q3.2 3.2 7.68 3.2t7.68-3.2l50.134-49.28q3.2-3.2 3.2-7.68t-3.2-7.68l-234.667-234.667q-3.2-3.2-7.68-3.2t-7.68 3.2l-125.867 125.654q-2.987 3.2-2.987 7.68z" />
<glyph unicode="&#xe182;" d="M42.666 437.334h426.666q17.493 0 30.080-12.587t12.587-30.080v-256q0-17.493-12.587-30.080t-30.080-12.587h-254.293l-129.707-128v128h-42.666q-17.494 0-30.080 12.587t-12.586 30.080v256q0 17.493 12.586 30.080t30.080 12.587z" />
<glyph unicode="&#xe185;" d="M376.32 13.226l-120.32 120.32-120.32-120.32-90.454 90.454 120.32 120.32-120.32 120.32 90.454 90.454 120.32-120.32 120.32 120.32 90.454-90.454-120.32-120.32 120.32-120.32z" />
<glyph unicode="&#xe208;" d="M469.334 210.774v-72.106q0-70.4-50.133-120.534t-120.534-50.134h-128q-70.4 0-120.534 50.134t-50.133 120.534v128q0 70.4 50.133 120.534t120.534 50.134h128q25.6 0 54.187-9.814l-75.947-75.52h-148.906q-17.493 0-30.080-12.587t-12.587-30.080v-213.333q0-17.493 12.587-30.080t30.080-12.587h213.334q17.493 0 30.080 12.587t12.587 30.080v29.44zM266.666 116.48l241.493 241.92-58.026 58.454-183.466-183.893-62.72 62.72-58.026-58.026z" />
<glyph unicode="&#xe237;" d="M56 77.334v213.334q0 35.413 25.067 60.373t60.266 24.96h116.266q-40.534-17.066-71.68-42.666h-65.92q-8.746 0-15.040-6.293t-6.293-15.040v-256q0-8.747 6.293-15.040t15.040-6.293h256q8.747 0 15.040 6.293t6.293 15.040v26.88l42.666 32v-37.546q0-35.413-24.96-60.373t-60.373-24.96h-213.333q-35.2 0-60.267 24.96t-25.067 60.373zM141.974 140.053q0.427 30.72 7.36 57.6t17.92 46.72 26.666 36.694 31.786 28.16 35.094 20.48 34.88 14.4 32.853 8.96 27.413 5.12 20.053 2.24v9.173q0 0.214 0.106 0.64t0.106 0.853v79.36q0 4.267 2.454 5.546t6.080-1.28l210.56-157.654q3.413-2.56 3.413-6.293t-3.413-6.506l-210.134-157.867q-3.627-2.774-6.080-1.493t-2.666 5.76v89.173q0 0.64-0.426 1.92v8.746q-11.094 0.64-25.92 0t-30.827-0.96-33.707-3.094-34.774-6.4-33.707-10.666-30.72-16.106-25.707-22.72-18.667-30.507z" />
<glyph unicode="&#xe238;" d="M469.334 161.28v-22.613q0-70.4-50.133-120.534t-120.534-50.133h-128q-70.4 0-120.534 50.134t-50.133 120.534v128q0 70.4 50.133 120.534t120.534 50.134h111.36l0.853-34.134q-56.746-13.654-93.013-51.2h-61.867q-17.493 0-30.080-12.587t-12.587-30.080v-213.333q0-17.493 12.587-30.080t30.080-12.587h213.334q17.493 0 30.080 12.587t12.587 30.080zM346.88 151.894l153.6 138.24-153.173 135.68v-92.16q-2.986 0-8.106-0.426t-20.48-3.413-29.654-7.893-32.64-15.787-32.64-25.173-26.453-37.546-16.853-51.84q12.8 16.214 34.773 27.307t43.947 15.147 42.24 5.974 33.067 1.494l12.373-0.427v-89.173z" />
<glyph unicode="&#xe243;" d="M191.147-17.493l349.014 349.866-90.454 90.454-258.986-258.986-87.894 88.32-90.454-90.454z" />
<glyph unicode="&#xe309;" d="M96 448v-384h384v384h-384zM448 96h-320v320h320v-320zM64 32v320l-32 32v-384h384l-32 32zM214.627 137.373l96 96 73.373-73.373v192h-192l73.373-73.373-96-96z" />
<glyph unicode="&#xe423;" d="M2.346 224q0 43.094 30.614 73.707t73.707 30.613q24.746 0 46.186-10.987t36.16-29.973l133.333 78.72q-2.346 10.454-2.346 17.92 0 30.933 21.866 52.8t52.8 21.867 52.8-21.867 21.866-52.8-21.866-52.8-52.8-21.867q-29.226 0-50.56 20.054l-136.32-80.427q3.2-13.44 3.2-24.96 0-10.666-2.987-24.106l136.746-80.853q21.334 19.627 49.92 19.627 30.933 0 52.8-21.866t21.866-52.8-21.866-52.8-52.8-21.866-52.8 21.866-21.866 52.8q0 8.32 2.56 18.56l-133.12 78.507q-14.506-19.2-36.16-30.293t-46.614-11.094q-43.093 0-73.707 30.613t-30.613 73.707z" />
<glyph unicode="&#xe424;" d="M447.484 96c-15.504 0-29.248-6.256-40.368-15.44l-97.536 69.632c6.192 12.752 9.936 26.752 9.936 41.808 0 20.688-6.752 39.808-17.872 55.44l114.096 114.192c9.488-5.568 20-9.632 31.744-9.632 35.376 0 64 28.624 64 64s-28.624 64-64 64-64-28.624-64-64c0-11.808 4.128-22.256 9.632-31.744l-114.096-114.192c-15.76 11.248-34.752 17.936-55.504 17.936-36.624 0-68.128-20.816-84.32-51.056l-77.056 25.744c-3.12 14.368-15.312 25.312-30.624 25.312-17.68 0-32-14.32-32-32s14.32-32 32-32c8.064 0 15.248 3.248 20.88 8.192l76.624-25.568c-0.752-4.816-1.504-9.632-1.504-14.624 0-52.992 43.008-96 96-96 26.368 0 50.32 10.688 67.68 27.936l96.912-69.184c-2.752-7.12-4.624-14.688-4.624-22.752 0-35.312 28.624-64 64-64s64 28.688 64 64-28.624 64-64 64z" horiz-adv-x="511" />
<glyph unicode="&#xe426;" d="M69.121 21.332h53.76q18.346 0 31.786 12.267t15.573 30.4h214.187q2.134-18.134 15.574-30.4t31.786-12.267h53.76q19.627 0 33.707 14.080t14.080 33.707v53.76q0 19.84-14.080 33.813t-33.707 13.974h-53.76q-18.346 0-31.786-12.267t-15.574-30.4h-107.094v90.026l60.8 60.16q5.546-0.853 8.32-0.853h53.76q19.627 0 33.707 14.080t14.080 33.707v53.76q0 19.84-14.080 33.814t-33.707 13.973h-53.76q-19.84 0-33.813-13.973t-13.974-33.814v-49.707l-75.733-75.094q-9.6-9.173-9.6-22.613v-103.466h-43.094q-2.133 18.134-15.573 30.4t-31.787 12.267h-53.76q-19.84 0-33.813-13.974t-13.974-33.813v-53.76q0-19.627 13.974-33.707t33.813-14.080zM69.121 64q-2.133 0-3.627 1.493t-1.493 3.627v53.76q0 2.134 1.493 3.627t3.626 1.493h53.76q2.133 0 3.626-1.493t1.494-3.627v-53.76q0-2.134-1.493-3.627t-3.627-1.493h-53.76zM431.788 64q-2.134 0-3.627 1.493t-1.493 3.627v53.76q0 2.134 1.493 3.627t3.627 1.493h53.76q2.134 0 3.627-1.493t1.493-3.627v-53.76q0-2.134-1.493-3.627t-3.627-1.493h-53.76zM346.454 320q-2.134 0-3.627 1.494t-1.493 3.626v53.76q0 2.134 1.493 3.626t3.627 1.494h53.76q2.134 0 3.627-1.494t1.493-3.626v-53.76q0-2.134-1.493-3.626t-3.627-1.494h-53.76z" />
<glyph unicode="&#xe443;" d="M384 437.334h117.334q4.267 0 7.466-3.2t3.2-7.466v-21.334q0-4.694-2.986-7.68t-7.68-2.986h-448q-4.694 0-7.68 2.986t-2.986 7.68v21.334q0 4.267 3.2 7.466t7.466 3.2h117.334v42.666q0 17.494 12.587 30.080t30.080 12.587h128q17.493 0 30.080-12.587t12.587-30.080v-42.666zM341.334 437.334v42.666h-128v-42.666h128zM85.334 352h384v-341.334q0-17.493-12.587-30.293t-30.080-12.8h-298.666q-17.493 0-30.080 12.8t-12.587 30.293v341.334zM128 10.666h42.666v298.666h-42.666v-298.666zM213.333 10.666h42.667v298.666h-42.666v-298.666zM298.666 10.666h42.666v298.666h-42.666v-298.666zM384 10.666h42.666v298.666h-42.666v-298.666z" />
<glyph unicode="&#xe600;" d="M152.041 301.728c0.091-1.205 0.192-2.405 0.298-3.604 8.070-91.228 61.44-161.711 126.096-161.711 65.49 0 119.412 72.32 126.389 165.269 0.967 6.673 1.474 13.512 1.474 20.474s-0.506 13.796-1.474 20.474c-9.371 64.61-62.392 114.111-126.389 114.111-64.022 0-117.048-49.532-126.394-114.169-0.962-6.657-1.464-13.481-1.464-20.423 0-2.825 0.107-5.615 0.263-8.394 0.238-4.055 0.623-8.070 1.2-12.029zM199.568 374.297c0 0 88.359-42.973 147.773 0 0 0 35.262-55.795 25.364-77.727l17.947 20.615c-0.081-5.473-0.496-10.864-1.26-16.135-6.12-81.594-53.462-145.090-110.958-145.090-56.565 0-103.298 61.45-110.634 141.141 4.977-1.25 11.082-3.665 17.729-8.308 0 0.006-12.626 74.982 14.038 85.503zM379.859 157.637c-0.481-21.8-54.596-95.173-85.326-135.137l-4.704 67.313c11.74 6.065 20.838 18.691 20.838 31.535 0 0-17.471-7.721-35.271-7.721-17.805 0-35.271 7.721-35.271 7.721 0-12.839 9.097-25.465 20.842-31.535l-4.829-69.085c-27.789 39.529-78.638 114.78-79.124 136.905-85.073-7.765-151.712-79.281-151.712-166.374h506.264c0 87.092-66.64 158.607-151.707 166.379z" horiz-adv-x="557" />
<glyph unicode="&#xe601;" d="M67.978 231.641l144.266 119.355c0 0 17.093 18.097 17.093-1.536 0-19.673 0-67.269 0-67.269s11.599 0 29.322 0c50.786 0 143.065 0 180.637 0 0 0 10.221 2.698 10.221-12.8 0-15.537 0-83.574 0-94.661s-8.546-10.831-8.546-10.831c-36.529 0-131.998 0-181.071 0-15.892 0-26.25 0-26.25 0s0-38.125 0-62.109c0-23.906-17.959-5.868-17.959-5.868s-134.755 101.514-148.913 115.673c-10.279 10.26 1.201 20.047 1.201 20.047z" />
<glyph unicode="&#xe602;" d="M444.022 231.641l-144.266 119.355c0 0-17.093 18.097-17.093-1.536 0-19.673 0-67.269 0-67.269s-11.599 0-29.322 0c-50.786 0-143.065 0-180.637 0 0 0-10.221 2.698-10.221-12.8 0-15.537 0-83.574 0-94.661s8.546-10.831 8.546-10.831c36.529 0 131.998 0 181.071 0 15.892 0 26.25 0 26.25 0s0-38.125 0-62.109c0-23.906 17.959-5.868 17.959-5.868s134.755 101.514 148.913 115.673c10.279 10.26-1.201 20.047-1.201 20.047z" />
<glyph unicode="&#xe603;" d="M263.64 412.022l119.355-144.266c0 0 18.097-17.093-1.536-17.093-19.673 0-67.269 0-67.269 0s0-11.599 0-29.322c0-50.786 0-143.065 0-180.637 0 0 2.698-10.221-12.8-10.221-15.537 0-83.574 0-94.661 0s-10.831 8.546-10.831 8.546c0 36.529 0 131.998 0 181.071 0 15.892 0 26.25 0 26.25s-38.124 0-62.109 0c-23.906 0-5.868 17.959-5.868 17.959s101.514 134.755 115.672 148.913c10.26 10.279 20.047-1.201 20.047-1.201z" />
<glyph unicode="&#xe604;" d="M248.359 35.978l-119.355 144.266c0 0-18.097 17.093 1.536 17.093 19.673 0 67.269 0 67.269 0s0 11.599 0 29.322c0 50.786 0 143.065 0 180.637 0 0-2.698 10.221 12.8 10.221 15.537 0 83.574 0 94.661 0s10.831-8.547 10.831-8.547c0-36.529 0-131.997 0-181.071 0-15.892 0-26.25 0-26.25s38.125 0 62.109 0c23.906 0 5.868-17.959 5.868-17.959s-101.514-134.755-115.673-148.913c-10.26-10.279-20.047 1.201-20.047 1.201z" />
<glyph unicode="&#xe605;" d="M147.067 224c0 6.851 2.617 13.701 7.833 18.923l164.352 164.347c10.455 10.455 27.402 10.455 37.852 0 10.45-10.45 10.45-27.397 0-37.852l-145.423-145.418 145.418-145.418c10.45-10.45 10.45-27.402 0-37.852-10.45-10.455-27.397-10.455-37.852 0l-164.352 164.347c-5.218 5.223-7.828 12.073-7.828 18.923z" />
<glyph unicode="&#xe606;" d="M364.933 224c0 6.851-2.616 13.701-7.834 18.923l-164.352 164.347c-10.455 10.455-27.402 10.455-37.852 0-10.45-10.45-10.45-27.397 0-37.852l145.423-145.418-145.418-145.418c-10.45-10.45-10.45-27.402 0-37.852 10.45-10.455 27.397-10.455 37.852 0l164.352 164.347c5.217 5.223 7.829 12.073 7.829 18.923z" />
<glyph unicode="&#xe607;" d="M256 332.933c6.851 0 13.701-2.616 18.923-7.833l164.347-164.352c10.455-10.455 10.455-27.402 0-37.852-10.45-10.45-27.397-10.45-37.852 0l-145.418 145.423-145.418-145.418c-10.45-10.45-27.402-10.45-37.852 0-10.455 10.45-10.455 27.397 0 37.852l164.347 164.352c5.222 5.217 12.073 7.828 18.923 7.828z" />
<glyph unicode="&#xe608;" d="M256 115.067c-6.851 0-13.701 2.616-18.923 7.834l-164.347 164.352c-10.455 10.455-10.455 27.402 0 37.852 10.45 10.45 27.397 10.45 37.852 0l145.418-145.423 145.418 145.418c10.45 10.45 27.402 10.45 37.852 0 10.455-10.45 10.455-27.397 0-37.852l-164.347-164.352c-5.223-5.217-12.073-7.829-18.923-7.829z" />
<glyph unicode="&#xe609;" d="M158.696 221.216c0 10.532-7.306 16.819-20.232 16.819-5.258 0-8.822-0.508-10.687-1.020v-33.808c2.206-0.508 4.921-0.675 8.668-0.675 13.751-0.004 22.251 6.965 22.251 18.684zM415.809 281.182h-9.952v48.022c0 0.3-0.049 0.601-0.086 0.906-0.017 1.906-0.626 3.779-1.93 5.262l-79.913 91.286c-0.024 0.024-0.049 0.033-0.065 0.057-0.476 0.533-1.032 0.975-1.618 1.357-0.175 0.118-0.349 0.216-0.533 0.317-0.508 0.276-1.048 0.508-1.605 0.675-0.151 0.041-0.284 0.101-0.435 0.142-0.601 0.142-1.231 0.231-1.865 0.231h-196.397c-8.968 0-16.254-7.294-16.254-16.254v-131.999h-9.951c-12.829 0-23.231-10.399-23.231-23.231v-120.808c0-12.825 10.403-23.231 23.231-23.231h9.951v-82.7c0-8.96 7.286-16.254 16.254-16.254h268.19c8.96 0 16.254 7.294 16.254 16.254v82.696h9.952c12.829 0 23.231 10.406 23.231 23.231v120.808c0 12.832-10.402 23.231-23.231 23.231zM121.413 413.18h188.269v-83.159c0-4.49 3.641-8.127 8.127-8.127h71.794v-40.716h-268.19v132.002zM224.613 176.705v-34.487h-23.779v114.505h30.237l23.787-41.959c6.79-12.065 13.592-26.327 18.684-39.245h0.508c-1.702 15.125-2.211 30.582-2.211 47.738v33.467h23.791v-114.505h-27.18l-24.466 44.17c-6.81 12.235-14.275 27.010-19.895 40.431l-0.5-0.167c0.695-15.125 1.024-31.26 1.024-49.949zM102.115 142.218v112.973c7.985 1.357 19.2 2.377 34.995 2.377 15.965 0 27.356-3.055 34.999-9.175 7.298-5.774 12.231-15.287 12.231-26.502 0-11.211-3.731-20.728-10.532-27.18-8.834-8.326-21.915-12.068-37.206-12.068-3.401 0-6.465 0.175-8.83 0.512v-40.944h-25.657zM389.603 35.616h-268.19v78.296h268.19v-78.296zM413.721 147.485c-7.985-2.714-23.109-6.457-38.23-6.457-20.89 0-36.023 5.267-46.548 15.462-10.533 9.854-16.319 24.803-16.14 41.623 0.163 38.054 27.863 59.798 65.402 59.798 14.783 0 26.173-2.881 31.772-5.603l-5.433-20.728c-6.295 2.722-14.108 4.929-26.681 4.929-21.565 0-37.88-12.231-37.88-37.035 0-23.617 14.783-37.546 36.023-37.546 5.941 0 10.699 0.678 12.743 1.699v23.959h-17.676v20.216h42.647v-60.315z" />
<glyph unicode="&#xe60a;" d="M168.956 217.063c0 11.162-7.749 17.822-21.427 17.822-5.579 0-9.358-0.536-11.341-1.077v-35.836c2.345-0.536 5.226-0.719 9.175-0.719 14.592 0 23.593 7.384 23.593 19.81zM253.607 234.529c-6.127 0-10.082-0.541-12.43-1.081v-79.409c2.345-0.545 6.127-0.545 9.549-0.545 24.844-0.175 41.053 13.503 41.053 42.496 0.179 25.218-14.588 38.538-38.173 38.538zM415.809 281.182h-9.952v48.022c0 0.3-0.049 0.601-0.086 0.906-0.017 1.906-0.626 3.779-1.93 5.262l-79.913 91.286c-0.024 0.024-0.049 0.033-0.065 0.057-0.476 0.533-1.032 0.975-1.618 1.357-0.175 0.118-0.349 0.216-0.533 0.317-0.508 0.276-1.048 0.508-1.605 0.675-0.151 0.041-0.284 0.101-0.435 0.142-0.601 0.142-1.231 0.231-1.865 0.231h-196.397c-8.968 0-16.254-7.294-16.254-16.254v-131.999h-9.951c-12.829 0-23.231-10.399-23.231-23.231v-120.808c0-12.825 10.403-23.231 23.231-23.231h9.951v-82.7c0-8.96 7.286-16.254 16.254-16.254h268.19c8.96 0 16.254 7.294 16.254 16.254v82.696h9.952c12.829 0 23.231 10.406 23.231 23.231v120.808c0 12.832-10.402 23.231-23.231 23.231zM121.413 413.18h188.269v-83.159c0-4.49 3.641-8.127 8.127-8.127h71.794v-40.716h-268.19v132.002zM320.942 196.901c0-23.235-8.46-39.257-20.18-49.164-12.772-10.622-32.224-15.661-55.983-15.661-14.222 0-24.303 0.898-31.155 1.796v119.207c10.082 1.618 23.235 2.519 37.1 2.519 23.036 0 37.986-4.145 49.692-12.963 12.601-9.367 20.524-24.308 20.524-45.734zM108.995 133.332v119.747c8.46 1.435 20.35 2.519 37.096 2.519 16.924 0 28.993-3.243 37.091-9.728 7.745-6.119 12.954-16.205 12.954-28.091s-3.95-21.971-11.159-28.81c-9.363-8.822-23.227-12.788-39.436-12.788-3.596 0-6.847 0.183-9.358 0.541v-43.394h-27.189zM389.603 35.616h-268.19v78.296h268.19v-78.296zM413.156 232.188h-46.645v-27.73h43.577v-22.329h-43.577v-48.798h-27.538v121.365h74.183v-22.507z" />
<glyph unicode="&#xe60b;" d="M419.381 280.803h-9.952v48.023c0 0.3-0.049 0.601-0.086 0.906-0.017 1.906-0.626 3.779-1.93 5.262l-79.912 91.286c-0.024 0.025-0.049 0.033-0.065 0.057-0.476 0.532-1.032 0.975-1.618 1.357-0.175 0.118-0.349 0.215-0.533 0.317-0.508 0.276-1.048 0.508-1.605 0.675-0.151 0.041-0.284 0.101-0.435 0.142-0.601 0.142-1.231 0.231-1.865 0.231h-196.397c-8.968 0-16.254-7.294-16.254-16.254v-131.999h-9.951c-12.829 0-23.231-10.399-23.231-23.231v-120.808c0-12.825 10.403-23.231 23.231-23.231h9.951v-82.7c0-8.96 7.286-16.254 16.254-16.254h268.19c8.96 0 16.254 7.294 16.254 16.254v82.696h9.952c12.829 0 23.231 10.406 23.231 23.231v120.808c0 12.832-10.402 23.231-23.231 23.231zM124.985 412.802h188.269v-83.159c0-4.49 3.641-8.127 8.127-8.127h71.794v-40.716h-268.19v132.003zM329.688 175.177c5.928 0 12.507 1.288 16.376 2.841l2.962-15.344c-3.604-1.796-11.723-3.743-22.296-3.743-30.046 0-45.511 18.696-45.511 43.447 0 29.651 21.142 46.153 47.445 46.153 10.179 0 17.92-2.069 21.399-3.869l-3.995-15.604c-3.995 1.683-9.537 3.222-16.502 3.222-15.604 0-27.717-9.407-27.717-28.745-0.004-17.392 10.313-28.359 27.839-28.359zM272.307 204.568c0-28.489-17.274-45.763-42.666-45.763-25.787 0-40.87 19.473-40.87 44.219 0 26.039 16.628 45.511 42.289 45.511 26.693 0 41.248-19.988 41.248-43.967zM103.034 160.61v85.346c7.221 1.158 16.628 1.796 26.555 1.796 16.502 0 27.201-2.963 35.572-9.281 9.029-6.701 14.706-17.4 14.706-32.74 0-16.628-6.059-28.107-14.441-35.194-9.155-7.607-23.077-11.219-40.099-11.219-10.175 0.004-17.396 0.65-22.293 1.292zM393.175 35.238h-268.19v78.296h268.19v-78.296zM408.076 160.224l-7.867 15.73c-3.223 6.055-5.286 10.573-7.737 15.596h-0.256c-1.808-5.026-3.995-9.541-6.7-15.596l-7.221-15.73h-22.435l25.141 43.967-24.231 42.927h22.56l7.603-15.864c2.58-5.274 4.51-9.537 6.575-14.43h0.256c2.060 5.538 3.743 9.407 5.928 14.429l7.347 15.864h22.435l-24.495-42.411 25.783-44.483h-22.687zM158.98 205.089c0.126 18.046-10.443 27.591-27.327 27.591-4.388 0-7.221-0.39-8.899-0.776v-56.849c1.683-0.386 4.388-0.386 6.839-0.386 17.79-0.134 29.387 9.663 29.387 30.419zM209.534 203.414c0-17.018 7.993-29.005 21.142-29.005 13.28 0 20.878 12.63 20.878 29.517 0 15.604-7.473 29.010-21.017 29.010-13.275-0.004-21.004-12.637-21.004-29.522z" />
<glyph unicode="&#xe60c;" d="M0-32h256v512h-256v-512zM160 416h64v-64h-64v64zM160 288h64v-64h-64v64zM160 160h64v-64h-64v64zM32 416h64v-64h-64v64zM32 288h64v-64h-64v64zM32 160h64v-64h-64v64zM288 320h224v-32h-224v32zM288-32h64v128h96v-128h64v288h-224v-288z" />
<glyph unicode="&#xe60d;" d="M459.741 401.001c-16.096 16.097-35.479 24.145-58.144 24.145h-237.715c-22.665 0-42.047-8.048-58.144-24.145-16.093-16.096-24.141-35.475-24.141-58.143v-237.715c0-22.665 8.048-42.043 24.141-58.144 16.096-16.096 35.479-24.144 58.143-24.144h237.716c22.665 0 42.043 8.048 58.144 24.144 16.096 16.1 24.144 35.479 24.144 58.144v237.716c-0.003 22.665-8.051 42.047-24.144 58.143zM447.309 105.142c0-12.569-4.471-23.331-13.424-32.288-8.953-8.953-19.712-13.424-32.288-13.424h-237.715c-12.572 0-23.334 4.471-32.287 13.424-8.953 8.957-13.427 19.719-13.427 32.288v237.715c0 12.572 4.475 23.335 13.427 32.288s19.715 13.428 32.287 13.428h237.715c12.575 0 23.334-4.475 32.288-13.428s13.424-19.716 13.424-32.288v-237.715z" horiz-adv-x="758" />
<glyph unicode="&#xe60e;" d="M473.74 204.288c-1.143 0.572-2.286 0.859-3.433 0.859-2.479 0-4.664-0.95-6.568-2.858l-18.288-18.284c-1.712-1.715-2.57-3.808-2.57-6.284v-72.567c0-12.575-4.467-23.334-13.424-32.288-8.953-8.953-19.716-13.428-32.288-13.428h-237.715c-12.572 0-23.334 4.474-32.287 13.428s-13.427 19.712-13.427 32.288v237.708c0 12.572 4.475 23.335 13.427 32.288s19.715 13.428 32.287 13.428h237.719c4.19 0 8.476-0.572 12.856-1.715 1.143-0.378 1.999-0.572 2.567-0.572 2.479 0 4.671 0.951 6.575 2.855l14 14c2.283 2.283 3.142 5.046 2.567 8.283-0.572 3.047-2.286 5.239-5.144 6.572-10.282 4.755-21.427 7.143-33.428 7.143h-237.712c-22.665 0-42.047-8.048-58.144-24.144-16.093-16.096-24.141-35.476-24.141-58.144v-237.715c0-22.665 8.048-42.043 24.141-58.14 16.096-16.1 35.479-24.148 58.144-24.148h237.715c22.665 0 42.047 8.048 58.144 24.148 16.096 16.096 24.148 35.476 24.148 58.14v90.863c0 3.998-1.911 6.757-5.719 8.286zM545.459 368.286l-31.432 31.432c-4.57 4.57-10.002 6.856-16.289 6.856-6.281 0-11.716-2.286-16.286-6.856l-184.86-184.86-75.138 75.145c-4.573 4.573-10.001 6.856-16.286 6.856s-11.713-2.283-16.286-6.856l-31.429-31.428c-4.573-4.573-6.859-10.001-6.859-16.29 0-6.285 2.286-11.713 6.859-16.286l122.856-122.855c4.573-4.577 10.002-6.86 16.286-6.86s11.713 2.283 16.286 6.86l232.574 232.571c4.569 4.569 6.86 10.001 6.86 16.286s-2.287 11.716-6.856 16.286z" horiz-adv-x="758" />
<glyph unicode="&#xe60f;" d="M65.701 279.303c0 99.596 81.022 180.624 180.624 180.624 82.447 0 152.003-55.584 173.578-131.21-3.945-4.272-6.702-9.687-7.481-15.82l-1.969-15.762-3.344-17.852-18.461 0.019c0 78.482-63.853 142.329-142.322 142.329-78.49 0-142.341-63.846-142.341-142.329 0-53.238 29.433-99.661 72.823-124.074l-27.834-27.834c-50.002 32.163-83.273 88.17-83.273 151.908zM246.325 392.749c-10.583 0-19.145-8.575-19.145-19.145v-94.302c0-10.571 8.561-19.145 19.145-19.145h108.311c10.575 0 19.15 8.575 19.15 19.145 0 10.575-8.575 19.15-19.15 19.15h-89.168v75.151c0 10.57-8.581 19.145-19.145 19.145zM445.71 308.358c-0.134 5.007-4.106 9.066-9.099 9.323-4.776 0.275-9.355-3.382-9.981-8.37l-2.046-16.332-3.575-19.067c-1.476-6.612-3.005-13.447-5.844-20.878l-4.291-12.551-6.081-13.376c-2.175-5.486-5.467-11.011-8.964-16.861-1.778-2.961-3.567-5.952-5.245-9.009-1.764-2.379-3.49-4.796-5.199-7.232-4.507-6.349-8.753-12.348-14.458-18.326-4.956-6.183-10.896-11.707-17.169-17.558-1.848-1.721-3.683-3.433-5.499-5.167-2.033-1.548-4.048-3.115-6.043-4.673-6.67-5.192-12.948-10.090-20.423-14.387-5.774-4.022-12.366-7.27-18.729-10.397-2.659-1.31-5.301-2.615-7.865-3.945-3.249-1.17-6.407-2.43-9.521-3.671-5.831-2.334-11.337-4.527-17.169-5.812l-12.655-3.505-12.444-2.13c-6.331-1.356-11.9-1.675-17.297-1.995l-10.142-0.774-1.433 0.033v44.671c0 3.868-2.327 7.36-5.909 8.844-3.595 1.476-7.692 0.665-10.441-2.072l-82.364-82.358c-1.79-1.796-2.8-4.233-2.8-6.772s1.010-4.975 2.8-6.772l82.364-82.358c1.835-1.829 4.284-2.8 6.772-2.8 1.234 0 2.481 0.236 3.671 0.729 3.581 1.484 5.909 4.975 5.909 8.849v46.677l17.629 3.228c8.153 1.683 18.3 3.791 28.018 7.398l11.33 3.798 18.786 7.949c7.916 3.12 15.416 7.507 22.661 11.746 3.101 1.817 6.234 3.645 9.431 5.403 0.351 0.192 0.677 0.402 1.010 0.634 2.5 1.803 5.038 3.575 7.59 5.351 7.738 5.371 15.723 10.933 22.559 17.361 8.441 6.726 15.82 14.521 22.949 22.060l5.173 5.447c0.224 0.236 0.442 0.479 0.652 0.742l4.681 5.921c6.382 8.026 12.993 16.337 17.981 24.868 5.589 7.993 9.796 16.325 13.869 24.394 1.401 2.788 2.795 5.543 4.221 8.242 0.192 0.37 0.37 0.748 0.511 1.139 1.273 3.421 2.64 6.758 3.983 10.039 2.974 7.264 6.043 14.777 7.776 22.144l4.413 15.703 2.519 13.81c2.001 9.105 2.577 17.437 3.094 24.784l0.921 12.494-0.595 25.365z" />
<glyph unicode="&#xe610;" d="M495.749-24.56c-3.379 0-6.757 1.137-9.522 3.379l-158.944 129.243h-311.068c-8.323 0-15.081 6.818-15.081 15.141v322.863c0 8.324 6.757 15.081 15.081 15.081h479.533c8.324 0 15.081-6.725 15.081-15.081v-322.863c0-8.324-6.757-15.141-15.081-15.141h-33.202l46.531-110.356c1.199-2.12 1.842-4.608 1.842-7.217 0-8.324-6.757-15.050-15.081-15.050h-0.092zM31.298 138.255h301.393c3.44 0 6.849-1.166 9.552-3.379l116.098-94.506-32.434 76.97c-1.966 4.668-1.474 9.981 1.291 14.221 2.827 4.238 7.524 6.725 12.594 6.725h40.849v292.702h-449.342v-292.733z" />
<glyph unicode="&#xe611;" d="M294.624 480h-294.624v-512h384v422.656l-89.376 89.344zM287.968 441.392l57.408-57.392h-57.408v57.392zM352 0h-320v448.032h224v-96.016h96v-352.016zM64 160h192v-32h-192v32zM64 288h256v-32h-256v32zM64 224h256v-32h-256v32z" />
<glyph unicode="&#xe612;" d="M384 255.056v135.6l-89.376 89.344h-294.624v-512h384v0.944c71.984 8 127.968 68.96 128 143.056-0.032 74.144-56.016 135.104-128 143.056zM287.968 441.392l57.408-57.392h-57.408v57.392zM32 0v448.032h224v-96.016h96v-96.96c-28.032-3.104-53.632-14.24-74.432-31.056h-213.568v-32h184.272c-6.592-9.856-11.888-20.624-15.904-32h-168.368v-32h160.944c-0.592-5.264-0.944-10.576-0.944-16 0-45.264 20.928-85.632 53.6-112h-245.6zM368 1.872c-60.816 0.144-110.016 49.344-110.16 110.128 0.144 60.816 49.344 110.016 110.16 110.16 60.784-0.144 109.984-49.344 110.128-110.16-0.144-60.784-49.344-109.984-110.128-110.128zM64 288h256v-32h-256v32zM416 176l-64-64-32 32-32-32 64-64 96 96z" />
<glyph unicode="&#xe613;" d="M384 255.056v135.6l-89.376 89.344h-294.624v-512h384v0.944c71.984 8 127.968 68.96 128 143.056-0.032 74.144-56.016 135.104-128 143.056zM287.968 441.392l57.408-57.392h-57.408v57.392zM32 0v448.032h224v-96.016h96v-96.96c-28.032-3.104-53.632-14.24-74.432-31.056h-213.568v-32h184.272c-6.592-9.856-11.888-20.624-15.904-32h-168.368v-32h160.944c-0.592-5.264-0.944-10.576-0.944-16 0-45.264 20.928-85.632 53.6-112h-245.6zM368 1.872c-60.816 0.144-110.016 49.344-110.16 110.128 0.144 60.816 49.344 110.016 110.16 110.16 60.784-0.144 109.984-49.344 110.128-110.16-0.144-60.784-49.344-109.984-110.128-110.128zM64 288h256v-32h-256v32zM384.032 128v64h-32.032v-64h-64v-32h64v-64h32.032v64h63.968v32z" />
<glyph unicode="&#xe614;" d="M384 255.056v135.6l-89.376 89.344h-294.624v-512h384v0.944c71.984 8 127.968 68.96 128 143.056-0.032 74.144-56.016 135.104-128 143.056zM287.968 441.392l57.408-57.392h-57.408v57.392zM32 0v448.032h224v-96.016h96v-96.96c-28.032-3.104-53.632-14.24-74.432-31.056h-213.568v-32h184.272c-6.592-9.856-11.888-20.624-15.904-32h-168.368v-32h160.944c-0.592-5.264-0.944-10.576-0.944-16 0-45.264 20.928-85.632 53.6-112h-245.6zM368 1.872c-60.816 0.144-110.016 49.344-110.16 110.128 0.144 60.816 49.344 110.016 110.16 110.16 60.784-0.144 109.984-49.344 110.128-110.16-0.144-60.784-49.344-109.984-110.128-110.128zM64 288h256v-32h-256v32zM368 64l64 64h-128z" />
<glyph unicode="&#xe615;" d="M384 255.056v135.6l-89.376 89.344h-294.624v-512h384v0.944c71.984 8 127.968 68.96 128 143.056-0.032 74.144-56.016 135.104-128 143.056zM287.968 441.392l57.408-57.392h-57.408v57.392zM32 0v448.032h224v-96.016h96v-96.96c-28.032-3.104-53.632-14.24-74.432-31.056h-213.568v-32h184.272c-6.592-9.856-11.888-20.624-15.904-32h-168.368v-32h160.944c-0.592-5.264-0.944-10.576-0.944-16 0-45.264 20.928-85.632 53.6-112h-245.6zM368 1.872c-60.816 0.144-110.016 49.344-110.144 110.128 0.128 60.816 49.328 110.016 110.144 110.16 60.784-0.144 109.984-49.344 110.128-110.16-0.144-60.784-49.344-109.984-110.128-110.128zM64 288h256v-32h-256v32zM352 128h32v-96h-32v96zM352 192h32v-32h-32v32z" />
<glyph unicode="&#xe616;" d="M384 255.056v135.6l-89.376 89.344h-294.624v-512h384v0.944c71.984 8 127.968 68.992 128 143.056-0.032 74.144-56.016 135.104-128 143.056zM287.968 441.392l57.408-57.392h-57.408v57.392zM32 0v448.032h224v-96.016h96v-96.96c-28.032-3.104-53.632-14.24-74.432-31.056h-213.568v-32h184.272c-6.592-9.856-11.888-20.624-15.904-32h-168.368v-32h160.944c-0.592-5.264-0.944-10.576-0.944-16 0-45.264 20.928-85.632 53.6-112h-245.6zM368 1.872c-60.816 0.144-110.016 49.344-110.16 110.128 0.144 60.816 49.344 110.016 110.16 110.16 60.784-0.144 109.984-49.344 110.128-110.16-0.144-60.784-49.344-109.984-110.128-110.128zM64 288h256v-32h-256v32zM304 48h48l-48 48v-48zM319.984 112l80 80 48.016-48-80-80-48.016 48z" />
<glyph unicode="&#xe617;" d="M160 368h112v-16h-112v16zM160 416h112v-16h-112v16zM320 480h-176c-17.6 0-32-14.4-32-32v-368c0-17.6 14.4-32 32-32h128v-80l40 40 40-40v80h32c17.6 0 32 14.4 32 32v288l-96 112zM320 456l75.2-88h-59.2c-8 0-16 8-16 16v72zM336 6.4l-24 24-24-24v62.4c8-3.2 16-4.8 24-4.8s16 1.6 24 4.8v-62.4zM312 80c-22.4 0-40 17.6-40 40s17.6 40 40 40 40-17.6 40-40-17.6-40-40-40zM400 80c0-8-6.4-16-16-16h-32v17.6c9.6 9.6 16 24 16 38.4 0 30.4-25.6 56-56 56s-56-25.6-56-56c0-16 6.4-28.8 16-38.4v-17.6h-128c-8 0-16 6.4-16 16v368c0 8 6.4 16 16 16h160v-80c0-17.6 14.4-32 32-32h64v-272zM160 320h208v-16h-208v16zM160 224h208v-16h-208v16zM160 272h208v-16h-208v16z" />
<glyph unicode="&#xe618;" d="M356.090 480.588h-258.284c-17.34 0-31.465-14.132-31.465-31.471v-450.239c0-17.36 14.126-31.471 31.465-31.471h316.375c17.36 0 31.471 14.112 31.471 31.471v384.399l-89.563 97.311zM363.515 433.493l39.26-42.659h-39.26v42.659zM419.224-1.116c0-2.779-2.271-5.050-5.050-5.050h-316.368c-2.779 0-5.036 2.271-5.036 5.050v450.233c0 2.779 2.257 5.030 5.036 5.030h239.275v-76.533c0-7.287 5.934-13.195 13.221-13.195h68.922v-365.534zM139.389 340.030h224.417c5.466 0 9.901-4.435 9.901-9.9s-4.435-9.9-9.901-9.9h-224.417c-5.466 0-9.9 4.435-9.9 9.9s4.435 9.9 9.9 9.9zM373.707 263.598c0-5.466-4.435-9.9-9.901-9.9h-224.417c-5.466 0-9.9 4.436-9.9 9.9s4.435 9.901 9.9 9.901h224.417c5.466 0 9.901-4.436 9.901-9.901zM373.707 199.242c0-5.466-4.435-9.901-9.901-9.901h-224.417c-5.466 0-9.9 4.435-9.9 9.901s4.435 9.901 9.9 9.901h224.417c5.466 0 9.901-4.435 9.901-9.901zM373.707 133.791c0-5.466-4.435-9.901-9.901-9.901h-224.417c-5.466 0-9.9 4.435-9.9 9.901s4.435 9.901 9.9 9.901h224.417c5.466 0 9.901-4.435 9.901-9.901z" />
<glyph unicode="&#xe619;" d="M107.888 348.187h307.779v-13.389h-307.779v13.389zM107.888 274.375h307.779v-13.416h-307.779v13.416zM0.15 477.333v-355.565h98.781l-0.036-151.109 151.446 151.109h261.517v355.565h-511.707zM112.293 2.959l0.018 132.226h-98.763v328.769h484.911v-328.769h-253.66l-132.507-132.226z" />
<glyph unicode="&#xe61a;" d="M404.112 348.187h-307.779v-13.389h307.779v13.389zM404.112 274.375h-307.779v-13.416h307.779v13.416zM511.849 477.333v-355.565h-98.781l0.036-151.109-151.445 151.109h-261.517v355.565h511.707zM399.707 2.959l-0.018 132.226h98.763v328.769h-484.911v-328.769h253.66l132.507-132.226z" />
<glyph unicode="&#xe61b;" d="M86.040 187.837h-70.906v271.048h401.126v-85.091h-330.221zM504.183 85.727h-65.826v-58.169l-58.169 58.169h-277.132v271.048h401.126z" />
<glyph unicode="&#xe61c;" d="M127.911 468.817v-135.568h-123.105v-249.069h55.359v-105.017l93.561 105.017h178.502v96.845h3.363l107.009-120.111v120.111h64.597v287.79h-379.285zM313.62 102.827h-168.262l-66.606-74.74v74.74h-55.359v211.833h104.497v-133.614h185.709v-78.219h0.020zM488.587 199.654h-64.615v-89.85l-80.072 89.85h-197.379v250.576h342.068v-250.576zM197.626 385.499h153.229v-18.608h-153.229v18.608zM197.626 326.602h229.958v-18.607h-229.958v18.608z" />
<glyph unicode="&#xe61d;" d="M336 208h-160c-8.832 0-16-7.168-16-16s7.168-16 16-16h160c8.832 0 16 7.168 16 16s-7.168 16-16 16zM368 304h-224c-8.832 0-16-7.168-16-16s7.168-16 16-16h224c8.832 0 16 7.168 16 16s-7.168 16-16 16zM256 480c-141.376 0-256-100.288-256-224 0-70.704 37.52-133.648 96-174.704v-113.296l112.144 68.048c15.52-2.56 31.488-4.048 47.856-4.048 141.392 0 256 100.288 256 224s-114.608 224-256 224zM256 64c-18.688 0-36.736 2.176-54.080 5.872l-75.328-45.28 1.008 74.208c-57.744 34.736-95.6 92.144-95.6 157.2 0 106.032 100.288 192 224 192s224-85.968 224-192c0-106.032-100.288-192-224-192z" />
<glyph unicode="&#xe61e;" d="M176 208h160c8.832 0 16-7.168 16-16s-7.168-16-16-16h-160c-8.832 0-16 7.168-16 16s7.168 16 16 16zM144 304h224c8.832 0 16-7.168 16-16s-7.168-16-16-16h-224c-8.832 0-16 7.168-16 16s7.168 16 16 16zM256 480c141.376 0 256-100.288 256-224 0-70.704-37.52-133.648-96-174.704v-113.296l-112.144 68.048c-15.52-2.56-31.488-4.048-47.856-4.048-141.392 0-256 100.288-256 224s114.608 224 256 224zM256 64c18.688 0 36.736 2.176 54.080 5.872l75.328-45.28-1.008 74.208c57.744 34.736 95.6 92.144 95.6 157.2 0 106.032-100.288 192-224 192s-224-85.968-224-192c0-106.032 100.288-192 224-192z" />
<glyph unicode="&#xe61f;" d="M273.062 480c-150.566 0-273.062-101.101-273.062-225.329 0-67.263 36.599-131.036 98.8-173.663-8.447-32.036-26.5-50.899-26.581-50.968-9.351-9.332-12.767-23.464-8.933-36.899 0.299-1.066 0.679-2.101 1.134-3.135 5.766-13.372 19.032-22 33.781-22 59.814 0 109.198 32.397 142.412 62.937 11.184-1.066 22.049-1.602 32.453-1.602 150.567 0 273.062 101.063 273.062 225.329-0.006 124.228-122.501 225.329-273.068 225.329zM273.062 81.406c-12.031 0-24.935 0.866-38.332 2.599-8.054 0.966-16.152-1.695-21.918-7.406-19.5-19.363-47.452-41.561-80.398-51.398 8.952 16.102 17.867 37.902 21.463 64.77 1.384 10.329-3.566 20.497-12.611 25.833-56.466 33.226-88.87 83.858-88.87 138.865 0 95.534 98.981 173.264 220.666 173.264s220.667-77.73 220.667-173.264c0-95.572-98.981-173.264-220.667-173.264zM388.713 303.401h-222.718c-7.232 0-13.103-5.835-13.103-13.035 0-7.162 5.866-12.997 13.103-12.997h222.718c7.231 0 13.098 5.835 13.098 12.997 0 7.2-5.866 13.035-13.098 13.035zM388.713 227.167h-222.718c-7.232 0-13.103-5.835-13.103-13.035 0-7.163 5.866-12.998 13.103-12.998h222.718c7.231 0 13.098 5.835 13.098 12.998 0 7.207-5.866 13.035-13.098 13.035z" horiz-adv-x="546" />
<glyph unicode="&#xe620;" d="M272.938 480c150.567 0 273.062-101.101 273.062-225.329 0-67.263-36.599-131.036-98.8-173.663 8.447-32.036 26.5-50.899 26.581-50.968 9.351-9.332 12.767-23.464 8.933-36.899-0.299-1.066-0.68-2.101-1.135-3.135-5.767-13.372-19.032-22-33.781-22-59.814 0-109.198 32.397-142.413 62.937-11.183-1.066-22.049-1.602-32.454-1.602-150.566 0-273.062 101.063-273.062 225.329 0.006 124.228 122.501 225.329 273.068 225.329zM272.938 81.406c12.031 0 24.935 0.866 38.332 2.599 8.054 0.966 16.152-1.695 21.918-7.406 19.5-19.363 47.452-41.561 80.398-51.398-8.952 16.102-17.866 37.902-21.463 64.77-1.384 10.329 3.566 20.497 12.611 25.833 56.466 33.226 88.87 83.858 88.87 138.865 0 95.534-98.981 173.264-220.666 173.264s-220.667-77.73-220.667-173.264c0-95.572 98.982-173.264 220.667-173.264zM157.287 303.401h222.718c7.231 0 13.103-5.835 13.103-13.035 0-7.162-5.866-12.997-13.103-12.997h-222.718c-7.232 0-13.097 5.835-13.097 12.997 0 7.2 5.866 13.035 13.097 13.035zM157.287 227.167h222.718c7.231 0 13.103-5.835 13.103-13.035 0-7.163-5.866-12.998-13.103-12.998h-222.718c-7.232 0-13.097 5.835-13.097 12.998 0 7.207 5.866 13.035 13.097 13.035z" horiz-adv-x="546" />
<glyph unicode="&#xe621;" d="M374.154-12.308v-19.692h-236.308v19.692c0 10.851 8.842 19.692 19.692 19.692h39.641c1.043 24.576 16.994 45.096 39.129 52.952v230.873c-10.378 6.558-17.329 18.058-17.329 31.252h74.043c0-13.194-6.952-24.694-17.329-31.252v-230.873c22.134-7.857 38.085-28.377 39.129-52.952h39.64c10.851 0 19.692-8.842 19.692-19.692zM512 164.923c-14.435-40.645-52.874-69.967-98.462-69.967s-84.027 29.341-98.462 69.967h22.725l66.52 176.305c2.875 7.68 15.537 7.68 18.432 0l66.52-176.305h22.725zM468.224 164.923l-54.685 144.935-54.685-144.935h109.371zM98.462 361.649c8.921 0 16.187 5.967 18.707 14.060 6.518 2.481 13.194 5.829 20.047 9.295 15.065 7.601 32.138 16.226 49.861 16.226 17.014 0 27.648-7.857 33.733-14.553-0.237-1.693-0.512-3.387-0.512-5.139 0-19.712 15.99-35.702 35.702-35.702s35.702 15.99 35.702 35.702c0 1.753-0.276 3.427-0.512 5.12 6.065 6.676 16.699 14.573 33.733 14.573 17.723 0 34.796-8.625 49.841-16.227 6.873-3.466 13.548-6.813 20.067-9.295 2.521-8.094 9.787-14.061 18.707-14.061 10.988 0 19.889 8.901 19.889 19.889s-8.901 19.889-19.889 19.889c-5.671 0-10.733-2.442-14.356-6.262-4.864 2.048-10.122 4.667-15.537 7.404-17.014 8.606-36.293 18.353-58.723 18.353-19.613 0-33.28-7.464-42.555-15.498-4.155 4.589-9.472 8.015-15.517 9.964 7.345 3.939 12.505 11.441 12.505 20.322 0 12.899-23.355 43.008-23.355 43.008s-23.355-30.11-23.355-43.008c0-8.901 5.16-16.384 12.505-20.322-6.046-1.93-11.363-5.376-15.518-9.964-9.275 8.034-22.941 15.498-42.555 15.498-22.429 0-41.728-9.748-58.742-18.353-5.415-2.737-10.653-5.356-15.517-7.385-3.623 3.8-8.684 6.243-14.355 6.243-10.989 0-19.889-8.901-19.889-19.889s8.901-19.889 19.889-19.889zM98.462 94.957c-45.587 0-84.027 29.341-98.462 69.967h22.725l66.52 176.305c2.875 7.68 15.537 7.68 18.432 0l66.52-176.305h22.725c-14.434-40.625-52.874-69.967-98.462-69.967zM153.147 164.923l-54.685 144.935-54.685-144.935h109.371z" />
<glyph unicode="&#xe622;" d="M494.064 39.472l-44.512 44.512c19.088 41.936 11.504 93.104-22.912 127.536-44.336 44.336-116.448 44.336-160.816-0.016-44.336-44.32-44.336-116.432 0.048-160.752 34.4-34.432 85.584-42.016 127.52-22.928l44.512-44.512c15.552-15.504 40.656-15.504 56.16 0 7.44 7.44 11.648 17.552 11.648 28.064-0.016 10.528-4.208 20.656-11.648 28.096zM398.272 79.104c-28.672-28.672-75.376-28.672-104.032 0-28.704 28.672-28.704 75.36 0 104.032 28.656 28.688 75.36 28.688 104.032 0 28.64-28.64 28.704-75.36 0-104.032zM254.4 39.28c-9.6 9.584-17.44 20.432-23.52 32.16v-42.512c-18.336 8.976-35.312 28.8-48.928 57.056 12.752 3.84 26.144 6.336 39.76 8.048-3.52 11.872-5.376 24.32-5.376 37.056 0 3.728 0.24 7.424 0.528 11.12-17.856-2.112-35.072-5.696-51.44-10.88-5.92 21.68-9.68 44.88-11.216 69.088h76.656v-9.568c6.064 11.68 13.888 22.528 23.472 32.096 10.848 10.832 23.344 19.392 36.832 25.696h-16.352v56.848c22.944 1.6 44.848 5.728 65.44 12.24 4.928-18 7.952-37.184 9.856-56.96 15.664-0.448 30.864-3.584 45.008-9.296-1.696 29.488-6.16 57.568-13.328 83.568 10.112 5.44 19.696 11.6 28.576 18.368 25.792-30.128 41.728-66.096 46.432-104.768h-55.504c13.504-6.32 25.968-14.864 36.8-25.68 6.864-6.864 12.528-14.528 17.584-22.544h1.12c-0.080-0.464-0.176-0.944-0.24-1.408 16.352-26.832 22.544-58.784 17.328-89.76 18.064 34.512 28.432 73.68 28.432 115.28 0 137.6-111.92 249.536-249.472 249.536-137.6 0-249.52-111.936-249.52-249.536 0-137.584 111.92-249.52 249.52-249.52 41.344 0 80.288 10.288 114.656 28.16-7.088-1.184-14.288-1.808-21.456-1.808-34.672 0.016-67.216 13.488-91.648 37.92zM374.896 386.368c-3.12-2-6.256-3.904-9.424-5.696-2.752 6.032-5.632 11.824-8.624 17.344 6.224-3.584 12.208-7.472 18.048-11.648zM274.832 420.192c18.288-8.944 35.264-28.736 48.88-57.024-15.632-4.688-31.968-7.824-48.88-9.264v66.288zM230.896 420.224v-66.352c-16.944 1.44-33.296 4.528-48.928 9.248 13.616 28.336 30.592 48.128 48.928 57.104zM165.408 317.76c20.656-6.496 42.624-10.608 65.488-12.256v-56.848h-76.656c1.52 24.176 5.296 47.36 11.168 69.104zM95.264 95.712c-25.728 30.144-41.664 66.080-46.368 104.72h61.408c1.648-30.592 6.144-59.6 13.552-86.336-10.112-5.424-19.696-11.6-28.592-18.384zM110.304 248.672h-61.408c4.72 38.624 20.592 74.528 46.32 104.608 8.72-6.672 18.304-12.816 28.624-18.32-7.408-26.736-11.952-55.696-13.536-86.288zM130.832 62.736c3.136 2.016 6.256 3.936 9.44 5.712 2.736-6.048 5.616-11.84 8.624-17.392-6.256 3.584-12.288 7.504-18.064 11.68zM140.32 380.736c-3.392 1.84-6.512 3.712-9.488 5.632 5.776 4.176 11.808 8.064 18.064 11.648-3.024-5.488-5.888-11.28-8.576-17.28z" />
<glyph unicode="&#xe623;" d="M91.392 88.088l114.472 114.472c10.92 10.92 14.056 26.512 9.776 40.304l35.44 35.44c10.592-8.624 21.576-15.52 32.376-20.552 0.824 2.456 2.096 4.712 3.952 6.568l59.352 59.352c1.84 1.84 4.112 3.088 6.6 3.88-7.264 15.616-18.4 31.664-33.024 46.288-14.912 14.912-31.304 26.232-47.216 33.48-0.832-2.304-2.032-4.44-3.792-6.208l-59.352-59.352c-1.752-1.752-3.84-3.032-6.168-3.888 5.064-11.088 12.136-22.392 21-33.288l-35.44-35.44c-13.792 4.28-29.384 1.144-40.304-9.776l-114.488-114.472c-15.688-15.688-15.688-41.12 0-56.808s41.128-15.688 56.816 0zM293.056 258.656c-1.104-1.104-1.808-2.504-2.24-4.056-1.472-5.328 0.896-12.696 6.472-18.272 4.368-4.36 9.968-6.968 14.992-6.968 2.104 0 5.080 0.472 7.336 2.728l59.352 59.352c2.248 2.248 3.16 5.688 2.552 9.68-0.672 4.448-3.088 8.936-6.792 12.64-4.368 4.36-9.968 6.968-14.984 6.968-0.968 0-2.128-0.128-3.312-0.456-1.392-0.384-2.816-1.056-4.032-2.28l-59.344-59.336zM196.96 344.672c1.088 0 2.416 0.144 3.76 0.584 1.24 0.408 2.496 1.064 3.584 2.152l59.352 59.352c0.992 0.992 1.632 2.248 2.080 3.608 1.744 5.352-0.576 12.976-6.32 18.712-4.368 4.36-9.968 6.968-14.984 6.968-2.104 0-5.080-0.472-7.336-2.728l-59.36-59.352c-4.896-4.904-2.96-15.128 4.24-22.328 4.368-4.36 9.968-6.968 14.984-6.968zM318.496 85.256c9.736 0.96 20.176 1.232 31.080 1.232 4.648 0 9.408-0.032 14.256-0.072 10.048-0.080 20.672-0.080 30.72 0 4.848 0.040 9.608 0.072 14.256 0.072 10.904 0 21.344-0.272 31.080-1.232v23.216h-121.392v-23.216zM408.808 78.488c-4.624 0-9.36-0.032-14.192-0.072-10.096-0.072-20.752-0.072-30.84 0-4.832 0.040-9.568 0.072-14.192 0.072-11.32 0-21.704-0.224-31.080-1.112-30.92-2.92-50.32-13.352-51.64-49.248h224.656c-1.32 35.896-20.72 46.32-51.64 49.248-9.368 0.888-19.76 1.112-31.072 1.112z" />
<glyph unicode="&#xe624;" d="M270.766 244.733l-72.478 75.284-174.32-177.161-23.968 23.565 198.541 201.785 73.183-76.008 125.894 120.55-36.071 36.054h94.178v-94.144l-34.339 34.322-150.62-144.25zM83.403-0.82h113.457v159.68h-113.457v-159.679zM240.982-0.82h113.456v210.104h-113.457v-210.105zM398.56 314.337v-315.157h113.457v315.157h-113.457z" />
<glyph unicode="&#xe625;" d="M467.825 397.216c0-33.046-103.426-59.834-231.009-59.834s-231.009 26.788-231.009 59.834c0 33.046 103.426 59.834 231.009 59.834s231.009-26.788 231.009-59.834zM73.121 273.755c46.16-13.563 104.294-21.554 163.697-21.033 131.082 1.149 192.355 31.744 192.357 31.745 24.933 10.555 39.141 22.253 39.141 32.904v48.531c0 0.573-0.063 1.134-0.149 1.688-8.103-13.48-28.149-23.583-46.622-30.41v-30.772c0-4.239-3.435-7.676-7.676-7.676s-7.676 3.437-7.676 7.676v25.655c-4.631-1.392-8.825-2.525-12.281-3.402v-37.349c0-5.653-4.582-10.235-10.235-10.235-5.651 0-10.235 4.582-10.235 10.235v32.93c-38.337-7.239-85.548-11.514-136.625-11.514-121.382 0-220.999 24.117-231.352 54.861-0.088-0.553-0.149-1.115-0.149-1.688v-49.589c0.001-14.172 25.349-30.081 67.805-42.558zM511.851 235.478c-8.103-13.48-28.149-23.582-46.623-30.41v-30.771c0-4.24-3.435-7.676-7.676-7.676-4.24 0-7.676 3.435-7.676 7.676v25.654c-4.63-1.391-8.824-2.525-12.281-3.402v-37.348c0-5.652-4.582-10.235-10.235-10.235-5.651 0-10.235 4.582-10.235 10.235v32.93c-38.337-7.239-85.548-11.514-136.625-11.514-121.382 0-220.999 24.116-231.351 54.861-0.088-0.554-0.148-1.115-0.148-1.688v-49.589c0-14.173 25.349-30.082 67.804-42.56 46.16-13.563 104.294-21.553 163.696-21.033 131.081 1.149 192.354 31.745 192.356 31.747 24.933 10.555 39.141 22.253 39.141 32.903v48.531c0.003 0.572-0.060 1.134-0.147 1.688zM231.498 50.981c-51.077 0-98.287 4.275-136.625 11.514v-32.932c0-5.651-4.584-10.235-10.234-10.235-5.653 0-10.234 4.583-10.234 10.235v37.349c-3.456 0.877-7.65 2.010-12.282 3.402v-25.654c0-4.24-3.435-7.676-7.676-7.676s-7.676 3.435-7.676 7.676v30.771c-18.473 6.827-38.517 16.93-46.621 30.41-0.088-0.553-0.149-1.115-0.149-1.685v-48.531c0-10.651 14.209-22.349 39.141-32.904 0.002-0.002 61.275-30.596 192.357-31.745 59.404-0.522 117.537 7.47 163.696 21.033 42.455 12.476 67.804 28.385 67.804 42.558v49.587c0 0.574-0.060 1.134-0.149 1.688-10.354-30.741-109.971-54.86-231.351-54.86zM244.442 230.107c-59.381-1.595-117.537 7.47-163.694 21.033-11.541 3.392-21.809 7.039-30.656 10.834 4.534-32.012 106.137-57.603 230.835-57.603 127.582 0 231.009 26.789 231.009 59.835 0 11.804-13.204 22.81-35.993 32.084v-1.533c0-11.188-15.665-23.53-42.975-34.489-0.001-0.001-60.089-26.712-188.526-30.161zM232.098 74.627c124.697 0 226.301 25.593 230.835 57.603-8.849-3.795-19.115-7.442-30.654-10.834-46.162-13.563-104.315-22.627-163.697-21.033-128.438 3.45-188.523 30.161-188.523 30.161-27.312 10.959-42.977 23.303-42.977 34.488v1.533c-22.786-9.274-35.995-20.277-35.995-32.086-0.001-33.043 103.425-59.833 231.010-59.833z" />
<glyph unicode="&#xe626;" d="M148.758 187.628c14.388 0 28.297 0.93 41.457 2.659v144.253c-13.16 1.729-27.069 2.658-41.457 2.658-82.156 0-148.756-30.206-148.756-67.469v-14.632c0-37.262 66.601-67.471 148.756-67.471zM148.758 112.305c14.388 0 28.297 0.93 41.457 2.657v42.284c-13.163-1.729-27.065-2.671-41.457-2.671-71.713 0-131.569 23.017-145.628 53.651-2.047-4.462-3.128-9.082-3.128-13.818v-14.632c0-37.263 66.601-67.469 148.756-67.469zM190.214 78.632v3.286c-13.163-1.729-27.065-2.671-41.457-2.671-71.713 0-131.569 23.017-145.628 53.651-2.047-4.461-3.128-9.081-3.128-13.817v-14.632c0-37.264 66.601-67.471 148.756-67.471 16.429 0 32.232 1.211 47.010 3.442-3.663 7.493-5.552 15.394-5.552 23.58v14.631zM363.245 451.469c-82.156 0-148.756-30.206-148.756-67.469v-14.632c0-37.263 66.601-67.469 148.756-67.469s148.756 30.206 148.756 67.469v14.632c0 37.263-66.602 67.469-148.756 67.469zM363.245 268.844c-71.713 0-131.569 23.016-145.628 53.651-2.048-4.461-3.129-9.081-3.129-13.819v-14.632c0-37.263 66.601-67.469 148.756-67.469s148.756 30.206 148.756 67.469v14.632c0 4.738-1.081 9.358-3.128 13.819-14.060-30.635-73.915-53.651-145.628-53.651zM363.245 193.517c-71.713 0-131.569 23.017-145.628 53.65-2.048-4.461-3.129-9.081-3.129-13.819v-14.632c0-37.264 66.601-67.471 148.756-67.471s148.756 30.206 148.756 67.471v14.632c0 4.738-1.081 9.358-3.128 13.819-14.060-30.634-73.915-53.65-145.628-53.65zM363.245 114.125c-71.713 0-131.569 23.017-145.628 53.651-2.048-4.462-3.129-9.081-3.129-13.817v-14.634c0-37.263 66.601-67.469 148.756-67.469s148.756 30.206 148.756 67.469v14.634c0 4.736-1.081 9.358-3.128 13.817-14.060-30.632-73.915-53.651-145.628-53.651zM363.245 38.8c-71.713 0-131.569 23.016-145.628 53.649-2.048-4.462-3.129-9.084-3.129-13.817v-14.632c0-37.263 66.601-67.469 148.756-67.469s148.756 30.206 148.756 67.469v14.634c0 4.736-1.081 9.358-3.128 13.817-14.060-30.634-73.915-53.651-145.628-53.651z" />
<glyph unicode="&#xe627;" d="M0.034 296.11c0 25.178 53.361 45.58 119.176 45.58s119.176-20.402 119.176-45.58-53.361-45.58-119.176-45.58-119.176 20.402-119.176 45.58zM392.824 337.283c65.815 0 119.176 20.402 119.176 45.58s-53.361 45.58-119.176 45.58-119.176-20.436-119.176-45.613 53.361-45.546 119.176-45.546zM392.791 296.277c65.815 0 119.176 20.402 119.176 45.58 0 3.539-1.168 6.979-3.205 10.318-12.188-20.169-59.404-35.262-115.937-35.262s-103.749 15.093-116.037 35.262c-2.037-3.306-3.172-6.779-3.172-10.318 0-25.178 53.361-45.58 119.176-45.58zM392.791 248.56c65.815 0 119.176 20.402 119.176 45.58 0 3.539-1.168 6.979-3.205 10.318-12.188-20.202-59.404-35.262-115.937-35.262s-103.749 15.060-116.037 35.262c-2.037-3.339-3.172-6.745-3.172-10.318 0-25.178 53.361-45.58 119.176-45.58zM119.21 209.558c65.816 0 119.176 20.436 119.176 45.58 0 3.54-1.168 6.979-3.206 10.318-12.255-20.202-59.438-35.262-116.004-35.262s-103.749 15.060-116.004 35.262c-2.003-3.339-3.172-6.779-3.172-10.318 0-25.178 53.361-45.58 119.21-45.58zM119.21 182.477c-56.566 0-103.749 15.060-116.004 35.262-2.003-3.306-3.172-6.779-3.172-10.318-0.034-25.211 53.327-45.58 119.176-45.58 16.095 0 31.456 1.202 45.48 3.473 17.597 20.135 43.142 33.058 71.692 33.959 1.269 2.671 2.037 5.342 2.037 8.147 0 3.539-1.168 7.012-3.206 10.318-12.255-20.169-59.438-35.262-116.004-35.262zM3.205 168.319c-2.003-3.339-3.172-6.745-3.172-10.318 0-25.178 53.361-45.58 119.176-45.58 7.48 0 14.759 0.334 21.872 0.801 0.969 7.313 2.772 14.325 5.243 21.070-8.715-0.801-17.764-1.236-27.114-1.236-56.566 0.034-103.782 15.093-116.004 35.262zM392.791 199.173c65.815 0 119.176 20.369 119.176 45.547 0 3.54-1.168 6.979-3.205 10.318-12.188-20.202-59.404-35.262-115.937-35.262s-103.749 15.093-116.037 35.296c-2.037-3.339-3.172-6.779-3.172-10.318 0-25.177 53.361-45.58 119.176-45.58zM392.824 172.526c-56.532 0-103.749 15.060-116.037 35.296-2.037-3.339-3.172-6.779-3.172-10.318 0-1.536 0.233-3.038 0.601-4.541 16.73-6.277 31.355-16.897 42.442-30.553 20.669-6.545 47.216-10.485 76.167-10.485 65.849 0 119.176 20.402 119.176 45.58 0 3.506-1.168 6.979-3.205 10.318-12.221-20.236-59.438-35.296-115.971-35.296zM392.824 123.173c-21.238 0-41.106 2.103-58.336 5.844 2.070-6.846 3.406-14.024 3.94-21.404 16.296-3.239 34.761-5.042 54.395-5.042 65.849 0 119.176 20.369 119.176 45.546 0 3.539-1.168 7.012-3.205 10.351-12.221-20.236-59.438-35.296-115.971-35.296zM239.054 179.004c-44.011 0-79.707-35.696-79.707-79.707s35.696-79.707 79.707-79.707 79.707 35.696 79.707 79.707-35.696 79.707-79.707 79.707z" />
<glyph unicode="&#xe628;" d="M247.822 353.767v-36.042c-0.014-18.659-55.489-33.788-123.91-33.788-68.436-0.001-123.897 15.13-123.912 33.787v36.043c0-18.663 55.476-33.792 123.91-33.792 68.436-0.001 123.912 15.127 123.912 33.792zM247.822 360.591c0-18.668-55.475-33.796-123.91-33.796s-123.912 15.128-123.912 33.796c0 18.665 55.476 33.792 123.91 33.792 68.436 0.001 123.912-15.127 123.912-33.792zM183.725 362.514l-108.853 7.428-3.7-6.652 4.035-0.561c5.531-0.779 12.552-2.484 9.293-8.299l-1.015-1.809 20.12-1.372 1.015 1.813c1.399 2.512 1.831 4.663 1.304 6.5l73.354-5.002 4.445 7.954zM123.91 274.728c-68.434 0-123.91 15.128-123.91 33.796v-36.046c0.015-18.659 55.476-33.79 123.91-33.79 68.421 0 123.897 15.131 123.91 33.79v36.046c0.001-18.668-55.482-33.796-123.91-33.796zM123.91 229.225c-68.434 0-123.91 15.132-123.91 33.794v-36.048c0.015-18.649 55.476-33.777 123.91-33.777 68.421 0 123.897 15.127 123.91 33.777v36.048c0.001-18.662-55.482-33.794-123.91-33.794zM123.91 184.505c-68.434 0-123.91 15.13-123.91 33.8v-36.053c0.015-18.649 55.476-33.786 123.91-33.786 68.421 0 123.897 15.136 123.91 33.786v36.053c0.001-18.692-55.482-33.8-123.91-33.8zM123.91 140.319c-68.434 0-123.91 15.136-123.91 33.8v-36.037c0.015-18.663 55.476-33.792 123.91-33.792 68.421 0 123.897 15.127 123.91 33.792v36.037c0.001-18.663-55.482-33.8-123.91-33.8zM123.91 96.224c-68.434 0-123.91 15.128-123.91 33.8v-36.053c0.015-18.652 55.476-33.786 123.91-33.786 68.421 0 123.897 15.134 123.91 33.786v36.053c0.001-18.671-55.482-33.8-123.91-33.8zM264.946 351.353h0.904v-0.915c19.635-3.57 43.234-5.665 68.625-5.665 68.414 0 123.88 15.129 123.911 33.786v36.046c0-18.666-55.48-33.796-123.911-33.796-68.432 0-123.913 15.136-123.913 33.803v-13.563c29.733-7.148 55.288-19.943 55.288-42.868 0-2.399-0.36-4.642-0.904-6.829zM210.564 421.435c0 18.665 55.482 33.792 123.913 33.792s123.911-15.127 123.911-33.792c0-18.671-55.48-33.802-123.911-33.802-68.432 0-123.913 15.131-123.913 33.802zM274.64 419.512l108.851-7.426 3.71 6.645-4.042 0.559c-5.547 0.783-12.541 2.485-9.312 8.298l1.034 1.821-20.12 1.37-1-1.817c-1.416-2.514-1.845-4.667-1.319-6.504l-73.353 5.006-4.45-7.952zM334.476 299.536c68.414 0 123.88 15.127 123.911 33.786v36.046c0-18.663-55.48-33.796-123.911-33.796-25.392 0-48.99 2.093-68.625 5.675v-25.931c-0.017-3.273-0.567-6.316-1.556-9.194h1.556v-0.915c19.625-3.585 43.234-5.671 68.625-5.671zM265.851 260.608v-0.92c19.635-3.57 43.234-5.663 68.625-5.663 68.414 0 123.88 15.129 123.911 33.788v36.043c0-18.671-55.48-33.8-123.911-33.8-25.392 0-48.99 2.087-68.625 5.663v-25.649c-0.017-3.379-0.626-6.517-1.666-9.464h1.666zM458.387 246.513v32.617c0-11.278-20.315-21.229-51.433-27.369 13.659-0.611 32.608-2.024 51.433-5.248zM265.851 228.815c12.033 8.191 30.006 13.523 48.572 16.99-17.721 0.787-34.207 2.582-48.572 5.196v-22.186zM388.087 164.28c-68.438 0-123.911 15.136-123.911 33.815v-36.053c0.034-18.663 55.486-33.793 123.911-33.793 68.442 0 123.897 15.128 123.911 33.793v36.053c0.010-18.678-55.47-33.815-123.911-33.815zM388.087 238.688c68.442 0 123.911-15.128 123.911-33.786 0-18.665-55.47-33.8-123.911-33.8-68.438 0-123.911 15.134-123.911 33.8 0.002 18.657 55.488 33.786 123.911 33.786zM406.083 205.937l-73.356 5.005-4.437-7.959 108.851-7.431 3.705 6.662-4.036 0.548c-5.526 0.789-12.536 2.487-9.293 8.313l1.012 1.805-20.12 1.366-0.995-1.805c-1.43-2.517-1.868-4.673-1.33-6.503zM388.087 119.049c-68.438 0-123.911 15.135-123.911 33.8v-36.060c0.034-18.663 55.486-33.796 123.911-33.796 68.442 0 123.897 15.131 123.911 33.796v36.037c0.010-18.642-55.47-33.777-123.911-33.777zM388.087 73.546c-68.438 0-123.911 15.127-123.911 33.792v-36.046c0.034-18.649 55.486-33.786 123.911-33.786 68.442 0 123.897 15.136 123.911 33.786v36.046c0.010-18.678-55.47-33.792-123.911-33.792zM388.087 28.803c-68.438 0-123.911 15.137-123.911 33.802v-36.053c0.034-18.652 55.486-33.779 123.911-33.779 68.442 0 123.897 15.127 123.911 33.779v36.053c0.010-18.663-55.47-33.802-123.911-33.802z" />
<glyph unicode="&#xe629;" d="M358.624 480h-294.624v-512h384v422.656l-89.376 89.344zM351.968 441.392l57.408-57.392h-57.408c0 0 0 57.392 0 57.392zM416 0h-320v448.032h224v-96.016h96v-352.016z" />
<glyph unicode="&#xe62a;" d="M341.952 480h-217.209v-447.014h327.509v336.714h-110.3zM363.5 480v-88.749h88.751zM387.221 16.599v-21.321h-300.189v419.695h20.953v27.279h-48.236v-474.252h354.75v48.599z" />
<glyph unicode="&#x1f4cc;" d="M256 478.72q69.12 0 127.786-34.134t92.8-92.8 34.134-127.786-34.134-127.786-92.8-92.8-127.786-34.134-127.786 34.134-92.8 92.8-34.133 127.786 34.133 127.786 92.8 92.8 127.786 34.133zM213.333 352v-42.666h85.333v42.666h-85.334zM170.667 266.667v-42.667h42.667v-85.334h-42.666v-42.666h170.667v42.666h-42.666v128h-128z" />
</font>
</defs>
</svg>
